<svg viewBox="0 0 20 14.1255" fill="none" xmlns="http://www.w3.org/2000/svg"><path id="Vector" d="M11.8845 4.7373V3.78513C12.4218 3.50704 12.9972 3.29852 13.6105 3.15956C14.224 3.0206 14.8538 2.95112 15.5 2.95112C15.8692 2.95112 16.2237 2.97534 16.5635 3.02376C16.9032 3.07235 17.2538 3.14123 17.6155 3.23041V4.15904C17.2667 4.04481 16.9266 3.96578 16.5953 3.92196C16.2638 3.87797 15.8987 3.85597 15.5 3.85597C14.8538 3.85597 14.2231 3.9304 13.6078 4.07925C12.9923 4.2281 12.4178 4.44745 11.8845 4.7373ZM11.8845 10.3245V9.33291C12.3962 9.05499 12.9683 8.84647 13.601 8.70734C14.2337 8.56838 14.8667 8.4989 15.5 8.4989C15.8692 8.4989 16.2237 8.5232 16.5635 8.57179C16.9032 8.62021 17.2538 8.68901 17.6155 8.77818V9.70682C17.2667 9.59275 16.9266 9.51373 16.5953 9.46974C16.2638 9.42575 15.8987 9.40375 15.5 9.40375C14.8538 9.40375 14.2231 9.4838 13.6078 9.6439C12.9923 9.80383 12.4178 10.0307 11.8845 10.3245ZM11.8845 7.55057V6.55902C12.4218 6.2811 12.9972 6.07258 13.6105 5.93345C14.224 5.79449 14.8538 5.72501 15.5 5.72501C15.8692 5.72501 16.2237 5.74922 16.5635 5.79765C16.9032 5.84624 17.2538 5.91512 17.6155 6.00429V6.93293C17.2667 6.81886 16.9266 6.73984 16.5953 6.69585C16.2638 6.65186 15.8987 6.62986 15.5 6.62986C14.8538 6.62986 14.2231 6.71085 13.6078 6.87283C12.9923 7.0348 12.4178 7.26072 11.8845 7.55057ZM4.5 11.3319C5.373 11.3319 6.222 11.4345 7.047 11.6398C7.872 11.8451 8.68967 12.1792 9.5 12.6421V2.60484C8.77817 2.07747 7.98267 1.682 7.1135 1.4184C6.24417 1.15481 5.373 1.02301 4.5 1.02301C3.9 1.02301 3.37467 1.05975 2.924 1.13324C2.47333 1.20672 1.973 1.34313 1.423 1.54244C1.26917 1.59496 1.16025 1.6704 1.09625 1.76878C1.03208 1.86699 1 1.97517 1 2.09333V11.316C1 11.4996 1.06408 11.6341 1.19225 11.7193C1.32042 11.8046 1.4615 11.8145 1.6155 11.749C1.98083 11.623 2.40292 11.522 2.88175 11.4459C3.36058 11.3699 3.9 11.3319 4.5 11.3319ZM10.5 12.6421C11.3103 12.1792 12.128 11.8451 12.953 11.6398C13.778 11.4345 14.627 11.3319 15.5 11.3319C16.1 11.3319 16.6394 11.3699 17.1182 11.4459C17.5971 11.522 18.0192 11.623 18.3845 11.749C18.5385 11.8145 18.6796 11.8046 18.8078 11.7193C18.9359 11.6341 19 11.4996 19 11.316V2.09333C19 1.97517 18.9679 1.87023 18.9038 1.7785C18.8398 1.68677 18.7308 1.60808 18.577 1.54244C18.027 1.34313 17.5267 1.20672 17.076 1.13324C16.6253 1.05975 16.1 1.02301 15.5 1.02301C14.627 1.02301 13.7558 1.15481 12.8865 1.4184C12.0173 1.682 11.2218 2.07747 10.5 2.60484V12.6421ZM10 14.1255C9.18717 13.5561 8.31408 13.1187 7.38075 12.8132C6.44742 12.5076 5.48717 12.3549 4.5 12.3549C3.9795 12.3549 3.46825 12.3995 2.96625 12.4886C2.46442 12.5778 1.97567 12.7208 1.5 12.9175C1.13717 13.0657 0.7965 13.0211 0.478 12.7838C0.159333 12.5464 0 12.2186 0 11.8002V1.91226C0 1.65906 0.0650833 1.42428 0.19525 1.20792C0.325417 0.991551 0.50775 0.840742 0.74225 0.755491C1.32942 0.490532 1.94033 0.298378 2.575 0.179027C3.20967 0.0596755 3.85133 0 4.5 0C5.4795 0 6.43492 0.144244 7.36625 0.432732C8.29775 0.721391 9.17567 1.14117 10 1.69206C10.8243 1.14117 11.7022 0.721391 12.6337 0.432732C13.5651 0.144244 14.5205 0 15.5 0C16.1487 0 16.7903 0.0596755 17.425 0.179027C18.0597 0.298378 18.6706 0.490532 19.2578 0.755491C19.4923 0.840742 19.6746 0.991551 19.8048 1.20792C19.9349 1.42428 20 1.65906 20 1.91226V11.8002C20 12.2186 19.8279 12.5399 19.4837 12.7641C19.1394 12.9883 18.773 13.0263 18.3845 12.8781C17.9218 12.6945 17.4491 12.5614 16.9663 12.4787C16.4836 12.3961 15.9948 12.3549 15.5 12.3549C14.5128 12.3549 13.5526 12.5076 12.6193 12.8132C11.6859 13.1187 10.8128 13.5561 10 14.1255Z" fill="#638C60"/>
</svg>